<?xml version="1.0" encoding="UTF-8"?>
<!DOCTYPE svg PUBLIC "-//W3C//DTD SVG 1.1//EN" "http://www.w3.org/Graphics/SVG/1.1/DTD/svg11.dtd">
<svg xmlns="http://www.w3.org/2000/svg" xml:space="preserve" width="145.544mm" height="93.3894mm" version="1.1" style="shape-rendering:geometricPrecision; text-rendering:geometricPrecision; image-rendering:optimizeQuality; fill-rule:evenodd; clip-rule:evenodd"
viewBox="0 0 864.37 554.63"
 xmlns:xlink="http://www.w3.org/1999/xlink">
 <defs>
  <style type="text/css">
   <![CDATA[
    .str0 {stroke:#DC0000;stroke-width:1.19;stroke-miterlimit:22.9256}
    .fil0 {fill:#CCCCCC;fill-rule:nonzero}
    .fil1 {fill:url(#id0)}
    .fil4 {fill:url(#id1)}
    .fil2 {fill:url(#id2)}
    .fil3 {fill:url(#id3)}
   ]]>
  </style>
  <radialGradient id="id0" gradientUnits="userSpaceOnUse" gradientTransform="matrix(1.96165 -0.0695343 0.106761 2.43604 -563 -388)" cx="552.9" cy="296.79" r="431.11" fx="552.9" fy="296.79">
   <stop offset="0" style="stop-opacity:1; stop-color:#DC0000"/>
   <stop offset="0.478431" style="stop-opacity:1; stop-color:#5C0000"/>
   <stop offset="1" style="stop-opacity:1; stop-color:#DC0000"/>
  </radialGradient>
  <radialGradient id="id1" gradientUnits="userSpaceOnUse" gradientTransform="matrix(5.48475 -0.129356 0.298502 4.53182 -2580 -973)" xlink:href="#id0" cx="555.54" cy="295.75" r="154.19" fx="555.54" fy="295.75">
  </radialGradient>
  <radialGradient id="id2" gradientUnits="userSpaceOnUse" gradientTransform="matrix(10.0827 -0.357398 0.548744 12.521 -5195 -3205)" xlink:href="#id0" cx="554.16" cy="295.36" r="83.87" fx="554.16" fy="295.36">
  </radialGradient>
  <radialGradient id="id3" gradientUnits="userSpaceOnUse" gradientTransform="matrix(10.0827 -0.357398 0.548744 12.521 -7914 -3098)" xlink:href="#id0" cx="853.44" cy="295.36" r="83.87" fx="853.44" fy="295.36">
  </radialGradient>
 </defs>
 <g id="Camada_x0020_1">
  <g id="_2433677390704">
   <path class="fil0" d="M134.9 1.61l26.71 0c9.12,0 15.77,2.12 19.95,6.36 4.18,4.24 6.28,10.75 6.28,19.55l0 4.51c0,5.79 -0.94,10.51 -2.82,14.16 -1.88,3.65 -4.75,6.28 -8.61,7.88l0 0.32c8.8,3 13.19,10.83 13.19,23.49l0 9.65c0,8.69 -2.28,15.31 -6.84,19.87 -4.56,4.56 -11.24,6.84 -20.03,6.84l-27.84 0 0 -112.63zm24.62 45.86c3.54,0 6.19,-0.91 7.96,-2.74 1.77,-1.82 2.65,-4.88 2.65,-9.17l0 -6.28c0,-4.08 -0.72,-7.03 -2.17,-8.85 -1.45,-1.82 -3.73,-2.74 -6.84,-2.74l-8.53 0 0 29.77 6.92 0zm3.22 50.68c3.11,0 5.42,-0.83 6.92,-2.49 1.5,-1.66 2.25,-4.53 2.25,-8.61l0 -9.81c0,-5.15 -0.88,-8.72 -2.65,-10.7 -1.77,-1.98 -4.69,-2.98 -8.77,-2.98l-7.88 0 0 34.59 10.14 0zm45.36 -96.54l48.27 0 0 16.09 -30.57 0 0 29.77 24.3 0 0 16.09 -24.3 0 0 34.59 30.57 0 0 16.09 -48.27 0 0 -112.63zm66.6 0l17.7 0 0 96.54 29.12 0 0 16.09 -46.82 0 0 -112.63zm77.86 0l23.97 0 18.34 112.63 -17.7 0 -3.22 -22.37 0 0.32 -20.11 0 -3.22 22.04 -16.41 0 18.34 -112.63zm19.31 75.3l-7.88 -55.67 -0.32 0 -7.72 55.67 15.93 0zm60.8 -75.3l17.86 0 11.59 87.37 0.32 0 11.59 -87.37 16.25 0 -17.06 112.63 -23.49 0 -17.06 -112.63zm74.32 0l17.7 0 0 112.63 -17.7 0 0 -112.63zm62.09 114.24c-8.58,0 -15.07,-2.44 -19.47,-7.32 -4.4,-4.88 -6.6,-11.88 -6.6,-21l0 -6.44 16.73 0 0 7.72c0,7.29 3.06,10.94 9.17,10.94 3,0 5.28,-0.88 6.84,-2.65 1.56,-1.77 2.33,-4.64 2.33,-8.61 0,-4.72 -1.07,-8.88 -3.22,-12.47 -2.15,-3.59 -6.11,-7.91 -11.91,-12.95 -7.29,-6.44 -12.39,-12.26 -15.29,-17.46 -2.9,-5.2 -4.34,-11.08 -4.34,-17.62 0,-8.9 2.25,-15.8 6.76,-20.68 4.51,-4.88 11.05,-7.32 19.63,-7.32 8.47,0 14.88,2.44 19.23,7.32 4.34,4.88 6.52,11.88 6.52,21l0 4.67 -16.73 0 0 -5.79c0,-3.86 -0.75,-6.68 -2.25,-8.45 -1.5,-1.77 -3.7,-2.65 -6.6,-2.65 -5.9,0 -8.85,3.59 -8.85,10.78 0,4.08 1.1,7.88 3.3,11.42 2.2,3.54 6.19,7.83 11.99,12.87 7.4,6.44 12.5,12.28 15.29,17.54 2.79,5.26 4.18,11.42 4.18,18.5 0,9.22 -2.28,16.3 -6.84,21.24 -4.56,4.93 -11.18,7.4 -19.87,7.4zm58.87 -98.15l-18.5 0 0 -16.09 54.71 0 0 16.09 -18.5 0 0 96.54 -17.7 0 0 -96.54zm59.2 -16.09l23.97 0 18.34 112.63 -17.7 0 -3.22 -22.37 0 0.32 -20.11 0 -3.22 22.04 -16.41 0 18.34 -112.63zm19.31 75.3l-7.88 -55.67 -0.32 0 -7.72 55.67 15.93 0z"/>
   <path class="fil0" d="M286.54 180.96l6.4 -31.98 6.24 0 6.4 31.98 -5.41 0 -1.26 -7.38 -5.57 0 -1.3 7.38 -5.49 0zm7.38 -11.09l4.34 0 -2.17 -13.42 -2.17 13.42zm35.65 11.53c-2.37,0 -4.21,-0.43 -5.53,-1.3 -1.32,-0.87 -2.22,-2.11 -2.72,-3.71 -0.5,-1.61 -0.75,-3.53 -0.75,-5.76l0 -21.63 5.69 0 0 22.31c0,1 0.07,1.94 0.2,2.82 0.13,0.88 0.44,1.59 0.93,2.13 0.49,0.54 1.22,0.81 2.19,0.81 1.03,0 1.77,-0.27 2.23,-0.81 0.46,-0.54 0.76,-1.25 0.91,-2.13 0.14,-0.88 0.22,-1.82 0.22,-2.82l0 -22.31 5.65 0 0 21.63c0,2.24 -0.25,4.16 -0.75,5.76 -0.5,1.61 -1.4,2.84 -2.7,3.71 -1.3,0.87 -3.15,1.3 -5.55,1.3zm29.06 -0.43l0 -27.68 -5.09 0 0 -4.3 15.95 0 0 4.3 -5.01 0 0 27.68 -5.84 0zm34.51 0.43c-2.26,0 -4.07,-0.42 -5.41,-1.26 -1.34,-0.84 -2.3,-2.05 -2.88,-3.63 -0.58,-1.58 -0.87,-3.45 -0.87,-5.61l0 -11.96c0,-2.16 0.29,-4.01 0.87,-5.55 0.58,-1.54 1.54,-2.72 2.88,-3.53 1.34,-0.82 3.15,-1.22 5.41,-1.22 2.32,0 4.14,0.41 5.47,1.22 1.33,0.82 2.29,1.99 2.88,3.53 0.59,1.54 0.89,3.39 0.89,5.55l0 12c0,2.13 -0.3,3.98 -0.89,5.55 -0.59,1.57 -1.55,2.78 -2.88,3.63 -1.33,0.86 -3.15,1.28 -5.47,1.28zm0 -4.3c0.97,0 1.69,-0.21 2.15,-0.63 0.46,-0.42 0.77,-1 0.93,-1.74 0.16,-0.74 0.24,-1.54 0.24,-2.41l0 -14.73c0,-0.89 -0.08,-1.7 -0.24,-2.41 -0.16,-0.71 -0.47,-1.27 -0.93,-1.68 -0.46,-0.41 -1.18,-0.61 -2.15,-0.61 -0.92,0 -1.62,0.2 -2.09,0.61 -0.47,0.41 -0.79,0.97 -0.95,1.68 -0.16,0.71 -0.24,1.51 -0.24,2.41l0 14.73c0,0.87 0.07,1.67 0.22,2.41 0.14,0.74 0.45,1.32 0.93,1.74 0.47,0.42 1.18,0.63 2.13,0.63zm35.41 3.87l0 -31.98 9.4 0c1.92,0 3.48,0.36 4.68,1.07 1.2,0.71 2.08,1.74 2.65,3.1 0.57,1.36 0.85,2.99 0.85,4.92 0,2.08 -0.36,3.76 -1.07,5.03 -0.71,1.28 -1.7,2.2 -2.98,2.78 -1.28,0.58 -2.78,0.87 -4.52,0.87l-3.16 0 0 14.21 -5.84 0zm5.84 -18.32l2.21 0c1.05,0 1.88,-0.15 2.47,-0.45 0.59,-0.3 1,-0.79 1.22,-1.46 0.22,-0.67 0.34,-1.57 0.34,-2.7 0,-1.16 -0.09,-2.1 -0.26,-2.82 -0.17,-0.72 -0.54,-1.26 -1.11,-1.6 -0.57,-0.34 -1.45,-0.51 -2.67,-0.51l-2.21 0 0 9.55zm27.24 18.32l0 -31.98 13.42 0 0 4.11 -7.58 0 0 9.2 5.96 0 0 4.07 -5.96 0 0 10.58 7.66 0 0 4.03 -13.5 0zm37.78 0.43c-2.34,0 -4.18,-0.46 -5.51,-1.38 -1.33,-0.92 -2.26,-2.18 -2.78,-3.77 -0.53,-1.59 -0.79,-3.43 -0.79,-5.51l0 -11.41c0,-2.18 0.26,-4.08 0.79,-5.69 0.53,-1.61 1.45,-2.84 2.78,-3.71 1.33,-0.87 3.16,-1.3 5.51,-1.3 2.21,0 3.94,0.38 5.19,1.13 1.25,0.75 2.14,1.82 2.66,3.22 0.53,1.4 0.79,3.01 0.79,4.86l0 2.68 -5.61 0 0 -2.76c0,-0.89 -0.05,-1.71 -0.14,-2.45 -0.09,-0.74 -0.34,-1.32 -0.75,-1.76 -0.41,-0.43 -1.11,-0.65 -2.11,-0.65 -1,0 -1.73,0.23 -2.19,0.69 -0.46,0.46 -0.76,1.08 -0.89,1.86 -0.13,0.78 -0.2,1.65 -0.2,2.62l0 13.9c0,1.16 0.09,2.11 0.28,2.86 0.18,0.75 0.52,1.32 1.01,1.7 0.49,0.38 1.15,0.57 1.99,0.57 0.97,0 1.66,-0.23 2.07,-0.69 0.41,-0.46 0.66,-1.07 0.77,-1.84 0.11,-0.76 0.16,-1.62 0.16,-2.57l0 -2.88 5.61 0 0 2.57c0,1.9 -0.25,3.57 -0.75,5.03 -0.5,1.46 -1.37,2.61 -2.62,3.43 -1.25,0.83 -3.01,1.24 -5.27,1.24zm0.32 9.71c-0.47,0 -0.95,-0.04 -1.44,-0.12 -0.49,-0.08 -0.95,-0.18 -1.4,-0.32l0 -2.49c0.32,0.11 0.66,0.18 1.03,0.24 0.37,0.05 0.74,0.08 1.11,0.08 0.68,0 1.26,-0.11 1.74,-0.34 0.47,-0.22 0.71,-0.6 0.71,-1.13 0,-0.5 -0.16,-0.89 -0.49,-1.16 -0.33,-0.28 -0.76,-0.49 -1.28,-0.65 -0.53,-0.16 -1.11,-0.26 -1.74,-0.32l0 -3.95 2.25 0 0 2.41c1.47,0 2.66,0.32 3.55,0.97 0.89,0.64 1.34,1.57 1.34,2.78 0,0.95 -0.24,1.71 -0.73,2.29 -0.49,0.58 -1.14,1.01 -1.95,1.28 -0.82,0.28 -1.71,0.41 -2.68,0.41zm23.06 -10.15l6.4 -31.98 6.24 0 6.4 31.98 -5.41 0 -1.26 -7.38 -5.57 0 -1.3 7.38 -5.49 0zm7.38 -11.09l4.34 0 -2.17 -13.42 -2.17 13.42zm34.94 11.53c-1.92,0 -3.53,-0.37 -4.82,-1.12 -1.29,-0.75 -2.26,-1.85 -2.92,-3.3 -0.66,-1.45 -1.03,-3.22 -1.11,-5.33l5.01 -0.99c0.05,1.24 0.2,2.33 0.45,3.28 0.25,0.95 0.63,1.68 1.14,2.19 0.51,0.51 1.19,0.77 2.03,0.77 0.95,0 1.62,-0.28 2.01,-0.85 0.39,-0.57 0.59,-1.28 0.59,-2.15 0,-1.4 -0.32,-2.54 -0.95,-3.44 -0.63,-0.89 -1.47,-1.79 -2.53,-2.68l-4.03 -3.55c-1.13,-0.97 -2.03,-2.06 -2.7,-3.26 -0.67,-1.2 -1.01,-2.68 -1.01,-4.44 0,-2.53 0.74,-4.47 2.21,-5.84 1.47,-1.37 3.49,-2.05 6.04,-2.05 1.5,0 2.75,0.23 3.75,0.69 1,0.46 1.8,1.1 2.39,1.91 0.59,0.82 1.03,1.74 1.32,2.78 0.29,1.04 0.47,2.14 0.55,3.3l-4.98 0.87c-0.05,-1 -0.16,-1.9 -0.34,-2.68 -0.17,-0.79 -0.47,-1.41 -0.91,-1.86 -0.43,-0.45 -1.07,-0.67 -1.91,-0.67 -0.87,0 -1.53,0.28 -1.99,0.85 -0.46,0.57 -0.69,1.27 -0.69,2.11 0,1.08 0.22,1.97 0.67,2.66 0.45,0.7 1.09,1.41 1.93,2.15l3.99 3.51c1.32,1.11 2.44,2.4 3.38,3.89 0.93,1.49 1.4,3.28 1.4,5.39 0,1.53 -0.34,2.88 -1.01,4.07 -0.67,1.18 -1.61,2.11 -2.8,2.78 -1.2,0.67 -2.6,1.01 -4.2,1.01z"/>
   <path class="fil0" d="M145.39 554.2l0 -31.98 4.07 0 7.78 18.24 0 -18.24 4.82 0 0 31.98 -3.87 0 -7.82 -19.11 0 19.11 -4.97 0zm32.18 0l6.4 -31.98 6.24 0 6.4 31.98 -5.41 0 -1.26 -7.38 -5.57 0 -1.3 7.38 -5.49 0zm7.38 -11.09l4.34 0 -2.17 -13.42 -2.17 13.42zm35.38 11.53c-2.34,0 -4.18,-0.46 -5.51,-1.38 -1.33,-0.92 -2.26,-2.18 -2.78,-3.77 -0.53,-1.59 -0.79,-3.43 -0.79,-5.51l0 -11.41c0,-2.18 0.26,-4.08 0.79,-5.69 0.53,-1.61 1.45,-2.84 2.78,-3.71 1.33,-0.87 3.16,-1.3 5.51,-1.3 2.21,0 3.94,0.38 5.19,1.13 1.25,0.75 2.14,1.82 2.66,3.22 0.53,1.4 0.79,3.01 0.79,4.86l0 2.68 -5.61 0 0 -2.76c0,-0.89 -0.05,-1.71 -0.14,-2.45 -0.09,-0.74 -0.34,-1.32 -0.75,-1.76 -0.41,-0.43 -1.11,-0.65 -2.11,-0.65 -1,0 -1.73,0.23 -2.19,0.69 -0.46,0.46 -0.76,1.08 -0.89,1.86 -0.13,0.78 -0.2,1.65 -0.2,2.62l0 13.9c0,1.16 0.09,2.11 0.28,2.86 0.18,0.75 0.52,1.32 1.01,1.7 0.49,0.38 1.15,0.57 1.99,0.57 0.97,0 1.66,-0.23 2.07,-0.69 0.41,-0.46 0.66,-1.07 0.77,-1.84 0.11,-0.76 0.16,-1.62 0.16,-2.57l0 -2.88 5.61 0 0 2.57c0,1.9 -0.25,3.57 -0.75,5.03 -0.5,1.46 -1.37,2.61 -2.62,3.43 -1.25,0.83 -3.01,1.24 -5.27,1.24zm25.15 -0.43l0 -31.98 5.76 0 0 31.98 -5.76 0zm31.66 0.43c-2.26,0 -4.07,-0.42 -5.41,-1.26 -1.34,-0.84 -2.3,-2.05 -2.88,-3.63 -0.58,-1.58 -0.87,-3.45 -0.87,-5.61l0 -11.96c0,-2.16 0.29,-4.01 0.87,-5.55 0.58,-1.54 1.54,-2.72 2.88,-3.53 1.34,-0.82 3.15,-1.22 5.41,-1.22 2.32,0 4.14,0.41 5.47,1.22 1.33,0.82 2.29,1.99 2.88,3.53 0.59,1.54 0.89,3.39 0.89,5.55l0 12c0,2.13 -0.3,3.98 -0.89,5.55 -0.59,1.57 -1.55,2.78 -2.88,3.63 -1.33,0.86 -3.15,1.28 -5.47,1.28zm0 -4.3c0.97,0 1.69,-0.21 2.15,-0.63 0.46,-0.42 0.77,-1 0.93,-1.74 0.16,-0.74 0.24,-1.54 0.24,-2.41l0 -14.73c0,-0.89 -0.08,-1.7 -0.24,-2.41 -0.16,-0.71 -0.47,-1.27 -0.93,-1.68 -0.46,-0.41 -1.18,-0.61 -2.15,-0.61 -0.92,0 -1.62,0.2 -2.09,0.61 -0.47,0.41 -0.79,0.97 -0.95,1.68 -0.16,0.71 -0.24,1.51 -0.24,2.41l0 14.73c0,0.87 0.07,1.67 0.22,2.41 0.14,0.74 0.45,1.32 0.93,1.74 0.47,0.42 1.18,0.63 2.13,0.63zm25.82 3.87l0 -31.98 4.07 0 7.78 18.24 0 -18.24 4.82 0 0 31.98 -3.87 0 -7.82 -19.11 0 19.11 -4.97 0zm32.18 0l6.4 -31.98 6.24 0 6.4 31.98 -5.41 0 -1.26 -7.38 -5.57 0 -1.3 7.38 -5.49 0zm7.38 -11.09l4.34 0 -2.17 -13.42 -2.17 13.42zm27.12 11.09l0 -31.98 5.84 0 0 27.95 7.74 0 0 4.03 -13.58 0zm37.51 -9.71l0 -3.67 9.55 0 0 3.67 -9.55 0zm35.41 9.71l0 -31.98 5.76 0 0 31.98 -5.76 0zm22.9 0l0.55 -31.98 6.04 0 4.54 22.15 4.74 -22.15 5.84 0 0.59 31.98 -4.34 0 -0.47 -22.23 -4.54 22.23 -3.51 0 -4.62 -22.31 -0.43 22.31 -4.38 0zm39.32 0l0 -31.98 9.4 0c1.92,0 3.48,0.36 4.68,1.07 1.2,0.71 2.08,1.74 2.65,3.1 0.57,1.36 0.85,2.99 0.85,4.92 0,2.08 -0.36,3.76 -1.07,5.03 -0.71,1.28 -1.7,2.2 -2.98,2.78 -1.28,0.58 -2.78,0.87 -4.52,0.87l-3.16 0 0 14.21 -5.84 0zm5.84 -18.32l2.21 0c1.05,0 1.88,-0.15 2.47,-0.45 0.59,-0.3 1,-0.79 1.22,-1.46 0.22,-0.67 0.34,-1.57 0.34,-2.7 0,-1.16 -0.09,-2.1 -0.26,-2.82 -0.17,-0.72 -0.54,-1.26 -1.11,-1.6 -0.57,-0.34 -1.45,-0.51 -2.67,-0.51l-2.21 0 0 9.55zm35.93 18.75c-2.26,0 -4.07,-0.42 -5.41,-1.26 -1.34,-0.84 -2.3,-2.05 -2.88,-3.63 -0.58,-1.58 -0.87,-3.45 -0.87,-5.61l0 -11.96c0,-2.16 0.29,-4.01 0.87,-5.55 0.58,-1.54 1.54,-2.72 2.88,-3.53 1.34,-0.82 3.15,-1.22 5.41,-1.22 2.32,0 4.14,0.41 5.47,1.22 1.33,0.82 2.29,1.99 2.88,3.53 0.59,1.54 0.89,3.39 0.89,5.55l0 12c0,2.13 -0.3,3.98 -0.89,5.55 -0.59,1.57 -1.55,2.78 -2.88,3.63 -1.33,0.86 -3.15,1.28 -5.47,1.28zm0 -4.3c0.97,0 1.69,-0.21 2.15,-0.63 0.46,-0.42 0.77,-1 0.93,-1.74 0.16,-0.74 0.24,-1.54 0.24,-2.41l0 -14.73c0,-0.89 -0.08,-1.7 -0.24,-2.41 -0.16,-0.71 -0.47,-1.27 -0.93,-1.68 -0.46,-0.41 -1.18,-0.61 -2.15,-0.61 -0.92,0 -1.62,0.2 -2.09,0.61 -0.47,0.41 -0.79,0.97 -0.95,1.68 -0.16,0.71 -0.24,1.51 -0.24,2.41l0 14.73c0,0.87 0.07,1.67 0.22,2.41 0.14,0.74 0.45,1.32 0.93,1.74 0.47,0.42 1.18,0.63 2.13,0.63zm25.82 3.87l0 -31.98 7.66 0c2.16,0 3.98,0.26 5.47,0.77 1.49,0.51 2.62,1.39 3.4,2.63 0.78,1.24 1.16,2.92 1.16,5.05 0,1.29 -0.12,2.45 -0.36,3.47 -0.24,1.03 -0.64,1.9 -1.2,2.62 -0.57,0.72 -1.35,1.28 -2.35,1.68l4.46 15.75 -5.84 0 -3.87 -14.65 -2.68 0 0 14.65 -5.84 0zm5.84 -18.32l1.82 0c1.13,0 2.03,-0.16 2.7,-0.49 0.67,-0.33 1.15,-0.86 1.44,-1.58 0.29,-0.72 0.43,-1.65 0.43,-2.78 0,-1.61 -0.3,-2.81 -0.89,-3.61 -0.59,-0.8 -1.72,-1.2 -3.38,-1.2l-2.13 0 0 9.67zm31.31 18.32l0 -27.68 -5.09 0 0 -4.3 15.95 0 0 4.3 -5.01 0 0 27.68 -5.84 0zm22.74 0l6.4 -31.98 6.24 0 6.4 31.98 -5.41 0 -1.26 -7.38 -5.57 0 -1.3 7.38 -5.49 0zm7.38 -11.09l4.34 0 -2.17 -13.42 -2.17 13.42zm27.12 11.09l0 -31.98 7.54 0c2.61,0 4.64,0.36 6.1,1.07 1.46,0.71 2.5,1.8 3.12,3.28 0.62,1.47 0.93,3.34 0.93,5.61l0 11.69c0,2.32 -0.31,4.24 -0.93,5.78 -0.62,1.54 -1.65,2.68 -3.08,3.43 -1.43,0.75 -3.4,1.13 -5.9,1.13l-7.78 0zm5.84 -4.07l1.78 0c1.34,0 2.3,-0.24 2.88,-0.71 0.58,-0.47 0.93,-1.16 1.07,-2.07 0.13,-0.91 0.2,-2.02 0.2,-3.34l0 -12.24c0,-1.29 -0.09,-2.33 -0.28,-3.12 -0.18,-0.79 -0.57,-1.37 -1.15,-1.74 -0.58,-0.37 -1.51,-0.55 -2.8,-0.55l-1.7 0 0 23.77zm37.11 4.5c-2.26,0 -4.07,-0.42 -5.41,-1.26 -1.34,-0.84 -2.3,-2.05 -2.88,-3.63 -0.58,-1.58 -0.87,-3.45 -0.87,-5.61l0 -11.96c0,-2.16 0.29,-4.01 0.87,-5.55 0.58,-1.54 1.54,-2.72 2.88,-3.53 1.34,-0.82 3.15,-1.22 5.41,-1.22 2.32,0 4.14,0.41 5.47,1.22 1.33,0.82 2.29,1.99 2.88,3.53 0.59,1.54 0.89,3.39 0.89,5.55l0 12c0,2.13 -0.3,3.98 -0.89,5.55 -0.59,1.57 -1.55,2.78 -2.88,3.63 -1.33,0.86 -3.15,1.28 -5.47,1.28zm0 -4.3c0.97,0 1.69,-0.21 2.15,-0.63 0.46,-0.42 0.77,-1 0.93,-1.74 0.16,-0.74 0.24,-1.54 0.24,-2.41l0 -14.73c0,-0.89 -0.08,-1.7 -0.24,-2.41 -0.16,-0.71 -0.47,-1.27 -0.93,-1.68 -0.46,-0.41 -1.18,-0.61 -2.15,-0.61 -0.92,0 -1.62,0.2 -2.09,0.61 -0.47,0.41 -0.79,0.97 -0.95,1.68 -0.16,0.71 -0.24,1.51 -0.24,2.41l0 14.73c0,0.87 0.07,1.67 0.22,2.41 0.14,0.74 0.45,1.32 0.93,1.74 0.47,0.42 1.18,0.63 2.13,0.63z"/>
   <g>
    <path class="fil1 str0" d="M246.05 199.15c-26.86,0.68 -48.15,12.01 -65.39,32.93l-72.43 86.03 -22.12 -32.94 -53.46 -1.79 -31.57 30.2 30.76 12.14 47.56 -1.55 7.48 8.75 -53.47 36.42 56.72 86.78 -38.75 -82.77 76.57 -49.27c212.61,2.89 395.87,2.89 608.49,0l76.57 49.27 -38.75 82.77 56.72 -86.78 -53.47 -36.42 7.48 -8.75 47.56 1.55 30.76 -12.14 -31.57 -30.2 -53.46 1.79 -22.12 32.94 -72.43 -86.03c-17.24,-20.91 -38.54,-32.25 -65.39,-32.93 -158.5,0.45 -213.77,0.45 -372.27,0z"/>
    <polygon class="fil2 str0" points="76.07,387.28 243.82,451.75 188.49,473.18 108.95,461.35 "/>
    <polygon class="fil3 str0" points="788.01,387.28 620.27,451.75 675.6,473.18 755.14,461.35 "/>
    <ellipse class="fil4 str0" cx="432.19" cy="452.81" rx="154.19" ry="3.47"/>
   </g>
  </g>
 </g>
</svg>
