<?xml version="1.0" encoding="UTF-8"?>
<!DOCTYPE svg PUBLIC "-//W3C//DTD SVG 1.1//EN" "http://www.w3.org/Graphics/SVG/1.1/DTD/svg11.dtd">
<svg xmlns="http://www.w3.org/2000/svg" xml:space="preserve" width="253.63mm" height="67.7796mm" version="1.1" style="shape-rendering:geometricPrecision; text-rendering:geometricPrecision; image-rendering:optimizeQuality; fill-rule:evenodd; clip-rule:evenodd"
viewBox="0 0 3587.58 958.74"
 xmlns:xlink="http://www.w3.org/1999/xlink">
 <defs>
  <style type="text/css">
   <![CDATA[
    .fil0 {fill:#000000; stroke:#DC0000; stroke-width:1.5; vector-effect:non-scaling-stroke}
   ]]>
  </style>
 </defs>
 <g id="Camada_x0020_1">
  <path class="fil0" d="M3.45 784.71l51.26 -0.13c-12.94,19.52 -51.02,41.45 -54.71,53.8 73.54,5.56 566.73,2.91 590.47,13.7 12.03,5.46 14,10.62 26.27,18.5 11.9,7.64 18.15,7.32 23.83,19.67 -100.48,-2.19 -209.34,-0.36 -309.9,3.31l-291.73 18.41c1.2,0.77 3.09,0.29 3.77,2 5.1,12.76 191.65,19.89 200.46,20.23 519.82,19.86 1033.69,23.76 1554.56,23.68 206.81,-0.03 1695.42,9.79 1766.16,-35.93 -0.9,-0.79 -2.47,-3.02 -2.95,-2.07 -0.48,0.95 -2.33,-1.62 -3.03,-1.94 -19.43,-8.9 -62.42,-9.69 -83.6,-11.32l-314.51 -10.74 72.12 -51.72c40.33,-31.58 120.4,8 162.73,-21.87 41.25,-29.11 43.39,-38.07 58.2,-71.83 19.7,-44.91 7.61,22.34 63.9,-125.54l70.17 -179.61c6.13,-38.41 -31.87,-51.67 -48.49,-77.25 32.7,-53.67 39.57,-69 42,-145.79 -88,-1.57 -179.07,-11.43 -268.19,-15.94 -105.75,-5.36 -153.96,-20.79 -246.1,-44.03 -256.65,-64.72 -727.6,-124.9 -998.76,-150.25 -201.02,-18.79 -335.07,-16.81 -530.37,14.73 -225.98,36.5 -458.04,155.77 -655.05,203.47 -78.07,18.9 -162.82,29.55 -241.65,47.75 -68.76,15.88 -138.14,54.96 -199.18,85.51 -209.55,104.88 -115.75,21.78 -371.73,202.28 -63.44,44.73 -61.65,34.4 -63.49,81.45 -1.13,29.02 -6.45,114.25 -2.46,137.48zm1313.1 18.41c70.55,3.34 575.09,-11.07 607.94,-25.69 -96.32,-5.24 -407.27,8.1 -530.98,16.93 -38.74,2.77 -58.16,-2.17 -76.95,8.76zm551.04 -723.17c-123.64,0.01 -241.03,10.17 -356.3,30.84 -103.41,18.55 -204.03,51.34 -302.5,82.14 -52.05,16.28 -93.16,30.89 -145.69,49.05 -77.88,26.93 -70.76,33.5 -165.12,30.03l5.8 5.84c9.95,7.53 -1.44,0.77 9.72,6.62l151.28 58.13c82.66,36.28 90.19,44.75 193.37,29.01 135.69,-20.7 267.04,-42.97 404.87,-63 69.66,-10.12 749.81,-84.4 804.91,-118.8 8.26,-5.16 3.37,-1.29 9.43,-7.8 -205.23,-72.37 -334.09,-102.09 -609.76,-102.06zm-846.13 205.39c46.01,31.16 103.84,72.86 192.5,71.58l-21.25 -88c59.2,6.38 149.97,45.83 143.61,-84.25 -30.35,-1.36 -212.89,66.15 -266.06,84.91 -18.46,6.51 -27.99,14 -48.8,15.76zm971.04 -185.3c-159.2,-2.43 -289.88,1.97 -446.77,31.68 -52.35,9.91 -149.05,28.95 -191.1,46.41 2.03,153.42 -93.68,108.1 -134.95,106.13 3.32,13.03 21.62,44.31 29.31,53.76 18.28,22.44 39.95,15.05 70.27,10.65 362.63,-53.28 740.27,-98.36 1098.84,-166.22 -127.19,-62.12 -285.3,-80.27 -425.6,-82.4zm996.36 241.89c-89.14,12.89 -125.91,30.4 -183.01,89.66 -39.95,41.46 -75.77,122.27 -66.48,205.1 16.56,147.7 135.91,257.81 297.4,247.23 216.37,-14.17 339.83,-314.2 153.14,-474.76 -43.84,-37.71 -124.18,-78.34 -201.05,-67.23zm180.96 82.75c-13.7,-27.57 -104.04,-58.05 -148.15,-59.85 -0.99,31.03 4.58,57.3 6,86.16 0.38,7.8 1.32,41.73 3.39,46.91 3.2,8 23.66,13.97 35.09,12.09 7.21,-1.19 41.89,-32.48 52.08,-41.15l51.59 -44.16zm-372.67 55.76l113.6 52.52c20.27,7.96 22.63,-0.77 39.34,-8.8 0.24,-13.5 -25.66,-126.21 -30.56,-137.94 -2.36,-0.82 -2.21,-1.57 -8.16,-0.94 -15.42,1.66 -48.38,25.03 -61.46,34.59 -14.85,10.84 -46.11,41.78 -52.76,60.57zm-9.36 243.65c21.58,-12.01 39.96,-26.7 59.08,-39.63 15.59,-10.55 45.92,-32.36 61.12,-38.98 -9.55,-50.28 -4.67,-34.66 -58.87,-54.7 -15.66,-5.79 -75.08,-28.21 -86.51,-28.44 -6.98,55.83 -1.09,122.89 25.18,161.75zm65.59 79.79c22.78,32.88 98.96,52.13 147.44,56.97 0.32,-20.57 -16.03,-126.6 -21.44,-140.81 -29.45,-10.42 -37.48,-6.81 -55.31,11.95l-54.94 56.47c-9.8,8.94 -8.43,3.94 -15.75,15.42zm237.13 40.28c29.41,1.79 110.39,-53.96 127.97,-99.76l-129.55 -59.63c-35.83,23.67 -22.56,41.8 -16.74,69.9 6.01,29 11.99,55.65 18.33,89.49zm24.82 -263.34c10.45,45.31 17.99,35.46 58.12,48.83 14.05,4.68 75.32,25.03 84.58,24.32 4.87,-48.94 0.84,-127.24 -27.83,-155.74 -18.54,7.23 -42.95,28.3 -57.66,39.84 -16.78,13.15 -41.15,25.21 -57.21,42.75zm-170.85 -207.57c0.55,41.15 24.41,103.54 31.18,151.81 -10.02,14.09 -21.95,25.36 -39.72,33.25 -24.67,10.94 -107.34,-38.65 -151.85,-55l-15.13 32.27c21.46,14.96 140.99,44.96 152.5,59.58 4.29,5.45 13.79,48.06 13.95,56.31 -3.85,10.04 -115.18,77.85 -133.99,92.94 3.1,12.52 18.83,29.74 31,40.65 18.76,-6.93 43.83,-40.12 59.48,-55.5 40.82,-40.1 43.37,-47.11 70.4,-40.98 42.69,9.68 44.76,22.3 49.48,67.14 3.64,34.6 12.68,70.6 13.54,103.89l37.77 -3.85c9.36,-21.93 -11.83,-79.33 -16.15,-103.11 -9.93,-54.62 -19.07,-51.69 20.54,-81.86 25.02,-19.05 46.95,-3.29 83.36,15.31l82.46 39.32c6.53,-13.63 13.41,-26.72 15.65,-44.22 -20.87,-13.11 -86.47,-29.37 -125.07,-42.66 -0.74,-0.25 -10.67,-3.7 -10.83,-3.78 -12.36,-5.5 -4.11,1.55 -10.91,-7.7 -7.29,-9.91 -10.5,-41.03 -9.54,-57.4 17.73,-21.51 39.25,-30.6 60.78,-46.97 11.39,-8.66 17.06,-14.04 31.64,-24.09 13.42,-9.25 26.62,-15.67 31.98,-25.6 -6.48,-11.18 -15.94,-19.48 -22.76,-30.57 -14.68,2.51 -7.13,0.11 -19.21,9.11l-80.18 68.32c-9.74,8.06 -18.81,21.67 -37.51,17.95 -7.25,-1.44 -32.99,-11.79 -39.19,-16.56 -12.63,-9.72 -6.76,-1.68 -10.46,-19.76 -7.48,-36.54 -5.22,-117.05 -11.69,-135.64 -14.86,-3.05 -37.56,3.59 -51.51,7.4zm42.41 178.28c-80.36,27.51 -28.87,150.69 44.92,117.28 21.63,-9.79 46.31,-48.46 34.39,-80.31 -10.1,-26.97 -40.21,-50.36 -79.31,-36.97zm8.86 24c-57.03,15.4 -14.4,89.74 27.12,69.49 38.23,-18.64 26.26,-83.9 -27.12,-69.49zm-2235.7 -203.24c-83.87,12.13 -118.47,28.61 -172.19,84.36 -37.59,39.01 -71.29,115.04 -62.55,192.98 15.58,138.97 127.88,242.57 279.82,232.61 203.58,-13.33 319.74,-295.63 144.09,-446.7 -41.25,-35.48 -116.84,-73.71 -189.17,-63.25zm170.26 77.86c-12.89,-25.94 -97.89,-54.61 -139.39,-56.31 -0.93,29.2 4.31,53.92 5.65,81.07 0.36,7.34 1.24,39.26 3.19,44.13 3.01,7.53 22.27,13.15 33.01,11.38 6.78,-1.12 39.42,-30.56 49,-38.72l48.54 -41.55zm-350.64 52.47l106.88 49.42c19.07,7.49 21.29,-0.73 37.02,-8.28 0.22,-12.7 -24.14,-118.75 -28.75,-129.79 -2.22,-0.77 -2.08,-1.48 -7.68,-0.88 -14.51,1.56 -45.52,23.55 -57.83,32.54 -13.97,10.2 -43.38,39.31 -49.64,56.99zm-8.81 229.25c20.3,-11.3 37.6,-25.12 55.59,-37.29 14.67,-9.93 43.21,-30.45 57.5,-36.67 -8.98,-47.31 -4.39,-32.62 -55.39,-51.47 -14.73,-5.45 -70.64,-26.55 -81.39,-26.76 -6.57,52.53 -1.02,115.62 23.69,152.19zm61.71 75.07c21.44,30.94 93.11,49.05 138.72,53.6 0.3,-19.36 -15.08,-119.11 -20.17,-132.48 -27.71,-9.8 -35.27,-6.4 -52.04,11.24l-51.69 53.13c-9.22,8.41 -7.93,3.71 -14.82,14.51zm223.11 37.9c27.67,1.69 103.87,-50.77 120.4,-93.86l-121.89 -56.1c-33.71,22.27 -21.23,39.33 -15.75,65.77 5.65,27.29 11.29,52.36 17.24,84.2zm23.35 -247.77c9.83,42.63 16.92,33.36 54.68,45.94 13.22,4.41 70.87,23.55 79.58,22.88 4.58,-46.05 0.79,-119.72 -26.18,-146.53 -17.45,6.81 -40.41,26.63 -54.25,37.48 -15.79,12.38 -38.72,23.72 -53.82,40.23zm-160.76 -195.3c0.52,38.72 22.97,97.42 29.33,142.83 -9.43,13.25 -20.65,23.87 -37.37,31.28 -23.21,10.29 -100.99,-36.37 -142.87,-51.75l-14.23 30.36c20.19,14.07 132.65,42.3 143.48,56.05 4.04,5.13 12.98,45.22 13.12,52.98 -3.62,9.45 -108.37,73.24 -126.07,87.45 2.92,11.78 17.72,27.98 29.17,38.24 17.66,-6.52 41.24,-37.75 55.97,-52.22 38.4,-37.73 40.8,-44.32 66.24,-38.55 40.17,9.11 42.12,20.98 46.55,63.17 3.42,32.55 11.93,66.43 12.74,97.75l35.54 -3.62c8.81,-20.64 -11.13,-74.64 -15.19,-97.01 -9.34,-51.39 -17.95,-48.64 19.33,-77.02 23.54,-17.93 44.17,-3.1 78.43,14.4l77.59 36.99c6.15,-12.83 12.62,-25.14 14.72,-41.61 -19.64,-12.33 -81.36,-27.63 -117.68,-40.14 -0.7,-0.24 -10.04,-3.49 -10.19,-3.55 -11.62,-5.18 -3.87,1.46 -10.27,-7.25 -6.86,-9.32 -9.88,-38.6 -8.97,-54 16.68,-20.24 36.92,-28.79 57.18,-44.2 10.72,-8.15 16.05,-13.21 29.77,-22.66 12.63,-8.7 25.05,-14.74 30.09,-24.09 -6.09,-10.52 -15,-18.33 -21.41,-28.76 -13.81,2.37 -6.71,0.11 -18.08,8.57l-75.44 64.28c-9.17,7.59 -17.69,20.39 -35.3,16.89 -6.82,-1.36 -31.05,-11.09 -36.87,-15.57 -11.89,-9.15 -6.36,-1.58 -9.84,-18.6 -7.04,-34.37 -4.91,-110.13 -10.99,-127.62 -13.98,-2.87 -35.34,3.38 -48.47,6.96zm39.91 167.74c-75.61,25.88 -27.16,141.78 42.27,110.35 20.35,-9.22 43.57,-45.6 32.35,-75.56 -9.5,-25.38 -37.83,-47.39 -74.62,-34.79zm8.34 22.58c-53.66,14.48 -13.55,84.43 25.51,65.38 35.97,-17.54 24.71,-78.94 -25.51,-65.38zm151.65 295.76l1921.13 2.53c-1.01,-1.33 -2.65,-4.75 -3.32,-3.75 -0.9,1.35 -17.96,-27.41 -54.87,-29.06 -163.58,-7.32 -446.26,-3.2 -614.11,-4.21l-1107.78 -8.83c-51.13,-0.21 -83.98,-13.06 -141.04,43.33zm2517.85 -476.39c23.66,-3.12 38.62,-22.6 50.94,-35.9 10.97,-11.84 30.17,-38.43 35.33,-50.34 -31.92,1.13 -50.06,-0.55 -61.09,24.5 -6.63,15.05 -23.64,47.5 -25.18,61.74zm-3380.13 203.3c26.5,-3.58 162.2,-34.84 174.54,-45.81l53.34 -56.57c11.53,-10.46 52.34,-43.45 58.68,-53.96 -52.61,15.64 -104.52,43.27 -152.99,69.51 -24.39,13.21 -127.35,65.5 -133.57,86.82zm1155.88 -92c18.5,30.16 114.73,101.57 148.8,127.74 38.36,29.46 41.46,30.5 102.82,33.91 61.45,3.42 308.08,-19.17 394.26,-23.22 51.99,-2.44 215.89,-9.52 254.45,-24l126.62 -261.08c-102.28,-10.23 -788.39,73.05 -920.74,101.82 -20.46,4.45 -38.39,8.68 -58.25,15.81 -7.87,2.82 -16.8,6.13 -24.75,10.21 -15.16,7.79 -16.08,9.06 -23.21,18.8zm-211.02 -89.44c94.87,47.39 108.98,213.65 117.39,309.95 27.17,6.57 486.94,-30.68 532.76,-37.78 -59.68,-2.11 -126.49,6.28 -187.32,7.86 -68.67,1.78 -99.74,-27.93 -144.41,-56.29 -45.23,-28.72 -77.61,-51.07 -116.1,-83.36 -104.37,-87.57 -33.41,-36.32 -112.69,-61.89l-14.55 -7.64c-0.62,-1.79 -2.32,-1.67 -3.34,-2.66 59.31,-13.97 123.12,-38.03 187.31,-52.92 90.33,-20.95 516.09,-62.76 638.38,-79.29 103.15,-13.95 340.47,-56.33 432.12,-44.93 55.97,6.96 395.52,48.06 420.49,57.52 -44.09,5 -226.99,-4.86 -246.59,9.04 -3.05,2.16 -94.17,133.85 -105.07,149.37 -58.54,83.32 -41.56,66.11 -142.73,111.94 -69.29,31.39 -104.78,45.76 -187.54,62.41 -58.39,11.74 -624.23,41.53 -715.44,43.98 -68.05,1.83 -175.04,0.39 -238.08,9.97 -7.06,17.68 -13.03,32.19 -21.8,48.55l1639.45 -15.57c-8.22,-21.59 -23.34,-39.65 -33.14,-63.48 -31.1,-75.61 -19.71,-175.53 8.55,-247.71 38.24,-97.68 115.42,-146.89 212.7,-176.78 113.12,-34.75 234.1,-2.65 296.25,62.04 76.81,79.96 124.25,124.58 124.97,269.89 36.89,2.27 75.1,-76.43 102.43,-122.38 14.62,-24.6 17.08,-25.38 50.44,-31.3 -52.85,44.04 -30.21,26.32 -72.77,118.49 -7.09,15.34 -15.94,28.26 -20.6,39.83 40.63,-8.85 68.96,-52.57 86.49,-88.27 19.08,-38.84 43.39,-84.91 57.59,-123.98 -7.98,-13.07 -18.6,-20.57 -27.48,-28.46 -22.68,10.2 -38.99,30.52 -63.99,45.26 -16.2,-10.36 -19.66,-12.33 -34.93,-24.03l-56.27 19.11c9.9,-23.58 24.6,-40.12 39.89,-63.12 10.9,-16.39 34.3,-42.67 40.11,-60.02l-156.16 34.3c26.19,-27.01 214.97,-63.57 260.75,-92.7 -8.98,-5.22 -235.25,-32.64 -273.28,-39.59 -168.81,-30.84 -97.15,-29.99 -289.22,-28.77 -172.68,1.1 -483.43,39.62 -592.32,36.34 109.91,-8.22 231.69,-31.31 359.07,-39.85 24.16,-1.62 112.3,-3.82 126.81,-7.97 -22.98,-12.38 -315.51,-63.71 -364.13,-72.38 -135.41,-24.15 -242.28,-47.39 -387.5,-55.85 -136.22,-7.94 -288.64,-25.21 -424.33,-21.57 -196.93,5.29 -504.98,125.98 -695.96,192.62 -144.96,50.58 -208.62,58.11 -362.28,82.36 -121.89,19.24 -204.07,84.48 -276.87,166.44 -13.4,15.09 -101.94,104.29 -104.4,114.72 -4.33,18.31 52.28,126.81 57.15,162.21l-149.5 6.43c-13.69,-18.95 -28.02,-65.92 -31.66,-87.69 48.75,24.24 3.37,56.25 149.16,39.56 -7.21,-15.6 -51.76,-85.71 -62.67,-96.65 -60.94,10.06 -141.56,46.79 -196.27,63.6l15.13 73.01 97.22 0.78c-10.81,24.52 -45.38,32.66 -58.89,54.28l375.81 -3.43c-12.44,-56.5 -77.02,-174.19 -57.1,-232.44 40.83,-119.4 59.4,-13.58 119.87,-105.07 66.12,-100.05 242.81,-168.86 387.37,-101.06 39.58,18.56 59.5,39.84 91.73,65.01z"/>
 </g>
</svg>
