<?xml version="1.0" encoding="UTF-8"?>
<!DOCTYPE svg PUBLIC "-//W3C//DTD SVG 1.1//EN" "http://www.w3.org/Graphics/SVG/1.1/DTD/svg11.dtd">
<svg xmlns="http://www.w3.org/2000/svg" xml:space="preserve" width="300.748mm" height="106.064mm" version="1.1" style="shape-rendering:geometricPrecision; text-rendering:geometricPrecision; image-rendering:optimizeQuality; fill-rule:evenodd; clip-rule:evenodd"
viewBox="0 0 3816.01 1345.78"
 xmlns:xlink="http://www.w3.org/1999/xlink">
 <defs>
  <style type="text/css">
   <![CDATA[
    .fil0 {fill:#000000; stroke:#DC0000; stroke-width:1.5; vector-effect:non-scaling-stroke}
   ]]>
  </style>
 </defs>
 <g id="Camada_x0020_1">
  <path class="fil0" d="M1250.2 1150.18c-61.99,-37.82 -740.12,-82.49 -855.79,-80.61 1.62,1.06 4.17,0.36 5.14,2.7 0.96,2.32 3.81,2.02 5.15,2.54 25.25,9.7 128.43,21.16 189.29,28.16 177.48,20.43 495.39,53.75 656.2,47.2zm-995.06 -270.95c-1.64,-1.33 -3.97,-5.41 -4.79,-4.13 -4.31,6.7 -36.2,-58.71 -51.11,-72.56l34.7 -77.47c5.32,-9.27 3.03,-6.24 8.01,-12.4 8.94,-11.04 2.08,-3.59 12,-11.84 4.21,66.27 8.51,111.37 1.18,178.4zm-92.4 -60.96c-19.37,-16.35 -21.5,-24.52 -1.1,-43.6 13.26,23.68 12.46,19.44 1.1,43.6zm-36.88 221.01l-28.93 -48.97 25.9 -47.41 3.03 96.38zm0.66 -377.71c-27.28,-23.14 -36.3,-50.09 -19.04,-81.94 1.3,-2.4 5.35,-9.66 7.27,-12.23 1.03,-1.37 2.37,-2.96 3.38,-4.2l8.38 98.37zm-38.02 293.6c-12.08,-34.61 -10.29,-29.47 5.9,-58.82 9.93,-18 18.49,-37.36 29.77,-51.54 6.44,46.78 -14.03,76.21 -35.66,110.37zm35.36 -201.66c-13.2,-15.82 -20.07,-30.39 -28.88,-45.81 -18.27,-31.96 -19.01,-16.02 -12.53,-57.34 1.75,1.24 4.44,0.74 5.26,3.71 0.77,2.81 3.82,2.63 4.8,3.73 24.6,27.81 37.62,56.41 31.35,95.71zm68.82 -103.3l0.03 -107.23c8.69,6.75 4.93,2.08 12.39,10.37 30.74,34.16 17.47,69.8 -12.43,96.86zm0.47 100.09c-1.24,-51.95 17.22,-95.1 45.29,-123.08 7.27,35.75 3.39,37.79 -10.27,66.15l-35.02 56.93zm45.45 200.54c-29.7,-31.41 -49.41,-68.26 -44.06,-113.09 21,22.53 61.72,83.07 44.06,113.09zm-10.6 32.33c-3.02,26.55 -16.35,52.15 -31.86,67.25l-3.99 -120.61c7.89,6.45 5.02,1.47 12.12,11.45l23.73 41.91zm-70.71 -261.93c-15.01,-28.68 -9.28,-132.76 -9.28,-169.63 0,-40.34 -2.72,-19.32 14.43,-27.71 14.51,20.06 8.61,65.97 8.65,103.87 0.04,35.64 6.75,68.88 -13.8,93.47zm5.15 152.88c13.8,22.44 15.06,179.36 0,194.98 -27.35,-10.99 -12.25,-180.22 -12.24,-180.24 10.4,-30.79 1.45,-5.88 12.24,-14.74zm-43.55 -75l-43.14 82.24c-12.54,-54.43 -6.83,-107.09 -4.96,-160.85 17.76,14.33 39.23,55.02 48.11,78.6zm682.34 118.14c-65.6,-10.29 -61.3,-26.48 -82.85,-77.45 -46.85,-110.79 -81.42,-239.41 -94.85,-362.7 -71.37,-11.59 -121.72,26.32 -159.6,35.27 2.71,49.25 47.29,269.42 80.46,298.26 24.72,21.48 85.51,56.35 114.62,75.73 38.06,25.34 89.05,28.98 142.23,30.89zm97.24 -384.56c-84.43,-22.1 -117.9,-52.23 -243.59,-58.32 9.19,123.87 61.28,266.75 114.46,377.75 12.02,25.09 8.76,24.91 35.97,33.61 69.24,22.13 150.6,39.3 221.72,58.03 76.32,20.1 152.3,42.51 227.79,60.6 -23.94,6.9 -519.37,-66.17 -585,-78.26 -31.66,-5.83 -77.43,-43.37 -104.2,-61.23 -38.55,-25.72 -56.64,-30.77 -76.61,-93.89 -17.7,-55.96 -60.43,-215.46 -60.84,-275.41 99.12,-40.7 117.94,-67.58 251.45,-47.65 75.26,11.24 175.13,48.67 218.84,84.78zm740 498.05c-9.78,-22.8 -59.96,-82.52 -56.61,-101.57 2.23,-12.64 46.24,-80.88 59.27,-96.27 12.13,23.76 10.4,68.82 10.65,99.55 0.14,17.54 -0.24,36.68 -1.08,54.08 -0.24,4.9 -1.02,17.36 -2.23,22.17 -5.96,23.56 0.03,9.03 -10,22.05zm-104.13 -70.88c-24.67,-13.6 -22.5,-20.42 -10.58,-48.39 12.19,9.42 22.9,-1.78 10.58,48.39zm-46.23 239.12c-45.57,-36.97 -33.65,-61.79 -17.83,-88.22l17.29 -21.69 0.55 109.9zm121.85 -482.38c-6.53,21.23 -21.5,45.77 -37.99,62.84l-2.53 -116.42c13.53,7.44 4.82,-0.57 14.09,9.43l26.43 44.15zm-122.83 177.25c-13.12,-16.01 -23.64,-32.21 -36.2,-50.73 -15.51,-22.86 -26.45,-26.83 -17.28,-60.64l14.74 5.74c30.71,27.99 39.11,65.47 38.75,105.63zm0.36 -99.59c-15.12,-13.64 -26.48,-32.1 -37.27,-52.28 4.96,-30.17 20.88,-53.8 37.27,-69.49l0 121.77zm0.36 187.55c-1.56,43.2 3.8,41.89 -14.68,74.25l-35.36 50.78 -7.49 -34.85c15.88,-29.7 34.85,-66.63 57.52,-90.18zm84.34 -95.05c-7.39,-50.73 9.63,-77.84 49.91,-130.4 22.24,26.7 6.73,40.43 -8.56,65.64 -12.51,20.63 -24.69,45.62 -41.35,64.76zm33.34 188.7c-7.4,-11.38 -9.61,-15.11 -17.57,-26.72 -19.58,-28.53 -22.05,-26.26 -15.88,-70.79 20.71,18.94 49.89,68.34 65.21,94.18l-6.62 33.4 -25.14 -30.07zm-8.14 34.05c21.28,31.19 22.84,29.84 -0.47,70.05 -4.74,8.17 -5.33,10.98 -9.71,16.06 -13.06,15.14 -3.06,5.1 -17.42,12.84l0.1 -132.16 27.5 33.21zm-62.15 -88.76c13.06,22.37 7.93,122.29 8.07,165.92 0.14,46.36 -6.88,36.79 -16.4,40.71 -14.86,-9.46 -9.3,-2.45 -12.36,-21.74l0.52 -95.57c-0.1,-122.12 14.04,-77.25 17,-89.25 0.29,-1.2 2.13,-0.25 3.17,-0.07zm-8.33 -376.8c19.49,7.75 11.25,-1.45 16.16,21.1l-0.02 140.71c-0.75,33.79 -3.43,33.38 -16.15,47.55 -19.06,-21.22 -11.8,-43.51 -11.78,-104.97 0.01,-25.49 -11.36,-89.06 11.78,-104.38zm-48.62 294.77c-12.44,24.61 -41.15,74.84 -57.51,89.25 -6.14,-57.6 -10.13,-119.7 -0.18,-177.03 16.72,13.99 51.12,65.88 57.68,87.77zm1579.21 -582.85c-18.84,5.12 -57.29,-24.07 -84.19,-38.33l-32.77 -22c45.81,3.33 144.91,7.34 116.96,60.33zm-1380.7 883.81c26.98,-66.83 46.32,-106.6 57.7,-195.25 17.67,-137.54 -1.91,-333.78 -90.08,-439.04 -49.16,-58.68 -111.01,-64.4 -193.51,-36 61.3,-54.83 150.52,-34.2 199.89,16.91 55.95,57.93 76.33,103.85 96.54,188.56 27.9,116.92 21.46,262.16 -21.43,375.45 -12.51,33.06 -46.54,81.66 -49.11,89.35zm820 -562.42c-10.69,16.4 -69.61,77.3 -88.95,81.5 -25.14,5.48 -137.67,0.88 -171.65,0.88 -32.87,-39.26 -74.61,-71.1 -122.42,-109.56l-133.65 -99.48c28.34,-11 234.22,29.74 276.76,39.31 105.02,23.64 158.42,48.73 239.9,87.34zm-309.06 82.36c-57.24,-0 -161.13,-6.9 -212.1,3.87l-1.79 -176.59c52.41,17.3 189.91,135.33 213.89,172.71zm527.21 12.39l-186.22 -124.52c-220.67,-127.38 -432.37,-188.99 -685.24,-215.88l-39.17 -8.52c196.21,-5.52 374.49,29.58 534.39,96.52 140.15,58.67 294,160.87 376.24,252.4zm791.32 -1.34c-25.48,-17.83 -36.38,-29.95 -59.79,-50.49 -17.78,-15.6 -40.52,-32.91 -59.8,-48.28 -39.75,-31.7 -80.65,-61.71 -127.51,-94.67 -44.31,-31.17 -86.07,-56 -137.62,-84.54 -82.16,-45.49 -111.76,-45.41 -143.69,-60.51 -1.54,-0.73 -3.28,-1.78 -4.65,-2.49l-9.09 -5.69c137.45,9.26 222.77,75.28 308.3,133.76 59.12,40.43 211.75,164.89 233.84,212.92zm199.27 -10.92c-64.08,0.03 -8.35,-4.72 -107.14,-45.7 -20.4,-8.46 -82.87,-46.94 -99.37,-60.91 9.89,-39.46 29.98,-66.47 38.34,-104.49 48.94,16.81 155.78,143 168.17,211.09zm-128.75 131.02l59.2 -10.83c-19.29,15.76 -53.45,23.01 -84.58,27.25 -0.48,-1.05 -0.47,-4.16 -0.55,-3.42 -0.08,0.75 -0.47,-2.88 -0.59,-3.48l-3.8 -15.86c-0.23,-0.84 -0.65,-2.99 -1.4,-4.3 -252.57,73.94 -506.64,39.28 -766.29,16.66 7.05,8.99 12.68,14.1 20.83,21.41 -70.49,2.36 -427.54,-33.86 -474.14,-55.85l419.93 35.33c0.52,-1.57 0.85,-5.16 0.98,-4.27l5.4 -16.71c405.24,14.71 421.62,57.12 818.68,-17.88 0.72,1.54 1.09,2.47 1.25,4.95l5.1 27zm-1021.2 227.79c-29.85,10.59 -255.04,19.27 -305.69,14.28 -35.79,-3.52 -159.23,-103.28 -188.14,-126.06l-112.59 -91.37c90.08,39.17 261.92,188.34 307.91,191.64l298.5 11.51zm1031.81 -2.13c24.52,-14.79 79.38,-47.85 91.62,-62.91 17.49,-21.52 22.83,-77.59 47.24,-106.2 -0.56,156.4 -127.45,175.64 -138.86,169.12zm-133.05 -61.06c28.06,13.32 82.48,66.84 107.87,93.55 85.5,-5.04 126.5,-46.83 153.17,-54.29l-0.67 83.59c-33.09,16.52 -85.85,27.18 -127.42,28.93l-132.95 -151.79zm31.87 159.49c-35.53,12.72 -252.06,34.51 -282.09,36.56 -102.28,6.98 -220.34,8.1 -323.22,7.24l315.19 -24.52c101.99,-4.51 199.4,-20.86 299.5,-23.73l-9.37 4.45zm-40.72 -62.4c-65.19,41.35 -523.62,47.12 -615.57,43.78 85.97,-13.71 214.07,-19.15 303.64,-20.73 108.62,-1.92 204.77,-18.73 311.93,-23.05zm-16.93 -59.32c-168.04,35.74 -413.79,53.9 -594.57,41.88 40.72,-16.65 241.43,-20.15 300.15,-22.09 94.36,-3.12 208.05,-24.58 294.42,-19.8zm-803.74 82.26c24.59,-4.54 60.76,-99.37 89.01,-133.13l88.67 2.43 -51.31 212.99c-119.33,8.87 -276.78,2.55 -399.55,1.61 -36.84,-0.28 -52.94,-10.67 -78.07,-26.43l-180.22 -107.75c25.96,4.37 77.04,25.89 105.52,36.55 51.08,19.1 75.65,13.74 134.03,13.73 97.31,-0.01 194.62,0 291.93,0zm-1064.73 -556.65c-68.63,-25.07 -113.14,49.71 -133.44,92.82 -79.68,169.21 -39.71,505.64 83.5,542.67 117.57,35.33 168.07,-182.89 172.54,-290.33 5.14,-123.53 -32.09,-312.1 -122.6,-345.17zm-1380.94 -118.27c-148.53,-61.84 -193.9,527.4 -37.36,592.48 156.78,65.19 203.92,-523.14 37.36,-592.48zm117.03 572.24c149.57,-190.48 49.28,-789.69 -201.31,-625.78 79.46,-26.58 113.9,-18.47 165.3,38.49 33.23,36.82 56.4,108.25 67.9,167.73 34.03,175.94 8.82,269.79 -31.89,419.56zm1016.92 -547.95c-64.55,-13.25 -155.42,-51.04 -234.2,-70.83 -216.18,-54.31 -549.09,-121.52 -765.21,-131.71 30.77,15.99 207.17,43.73 267.56,57.72 128.8,29.83 370.87,99.2 492.54,142.22 79.65,28.17 163.13,61.31 240.01,83.37l-0.7 -80.77zm-2.52 -188.95c-16.77,-14.03 -26.64,-25.2 -41.1,-40.87 -20.69,-22.43 -18.15,-22.39 -59.49,-22.14 -50.67,0.31 -106.67,-1.89 -156.57,1.35 44.69,44.34 100.27,61.5 166.47,65.09 -87.22,3.84 -131.32,-8.34 -196.75,-65.23l-27.44 59.9c28.8,15.16 54.5,29.03 83.33,43.4 57.99,28.91 96.5,18.7 178.48,23.72l9.96 88.01 41.94 16.34c-12.71,-43.16 -27.37,-24.69 -15.41,-78.3 6.47,-29.01 15.69,-60.77 16.59,-91.27zm-762.36 -151.58l-109.79 -0.09 6.02 37.01 103.77 -36.93zm-100.2 -59.55c-38.9,0.06 -173.02,-1.29 -200.74,8.04 45.39,23.6 335.53,8.25 407.05,5.19l-24.84 -9.65c-4.32,-0.64 -17.21,-0.51 -22.58,-0.62l-158.88 -2.97zm1091.59 267.93c-10.52,-48.11 -40.52,-105.54 -66.38,-142.84 -34.5,-49.74 -51.63,-66.01 -100.67,-102.33 -81.3,-60.22 -211.79,-82.39 -336.96,-67.53 -225.44,26.78 -427.42,121.18 -638.86,186.06 16.1,13 43.41,15.38 67.98,21.04 40.61,9.36 38.02,7.1 74.63,-6.33 61.76,-22.64 69.87,-35.34 135.14,-12.52l262.69 87.51c-36.23,-25.73 -237.02,-93.15 -272.38,-120.66 114.08,-49.46 376.63,-107.36 519.66,-103.54 142.15,3.79 220.87,73.3 292.67,171.69 23.03,31.56 38.39,60.72 62.49,89.44zm691.98 -56.37c-50.63,-47.48 -419.1,-230.15 -517.74,-226.34 39.22,27.59 94.8,44.94 148.66,93.54 43.24,39.01 81.63,72.82 109.74,132.59l259.34 0.22zm587.87 -0.84c-28.63,-34.14 -250.33,-128.13 -311.02,-149.61 -114.99,-40.69 -251.71,-75.99 -385.79,-77.39 31.23,15.04 91.73,22.34 170.89,63.42 82.8,42.97 144.55,77.46 218.58,130.77 29.07,20.93 34.17,33.76 80.58,33.84 73.17,0.12 154.56,2.61 226.77,-1.03zm-1994.29 -247.1c-34.68,-14.29 -463.52,-10.49 -519.83,-3.16 6.2,4.13 3.02,4.76 15.65,7.97l114.35 4.41c66.1,1.65 360.43,3.13 389.84,-9.22zm2130.24 253.79c-8.32,-5.06 -14.2,-7.51 -20.99,-10.94 -14.22,-7.19 -26.45,-13.08 -42.69,-21.28l-256.93 -117.24c-374.9,-153.33 -462.7,-135.11 -854.05,-135.11 -160.19,0 -337.43,-7.07 -495.53,1.19 60.3,26.71 114.32,14.24 231.42,122.26 32.99,30.43 127.49,148.82 140.23,210.67l493.1 -20.19c-55.42,-25.18 -377.95,3.43 -472.76,-8.1 -9,-11.33 -36.35,-63.1 -49.91,-83.61 -19.25,-29.14 -34.59,-50.14 -53.38,-73.6 -70.5,-88.03 -74,-72.82 -129.34,-129.17 149.02,5.44 300.85,1.56 450.4,4.57 409.49,8.24 395.5,-12.7 765.35,136.22 110.84,44.63 210.33,95 310.99,136.71l-15.92 -12.38zm784.01 459.59c45.48,188.37 -2.6,209.38 -2.6,346.46 0,50.52 97.23,39.25 76.22,96.58 -22.86,62.39 -352.71,77.39 -413.95,81.45 -303.87,20.13 -635.76,20.67 -945.6,18.97 -369.91,-2.03 -583.31,-15.66 -945.61,-36.5 -127.13,-7.31 -137.49,-35.68 -201.43,-48.28 -146.74,-28.92 -493.84,-52.68 -658.78,-69.7 -149.52,-15.42 -303.39,-24.98 -453.33,-36.36 -61.35,-4.66 -53.7,-7.07 -85.64,-41.24 -57.49,-61.5 -80.01,-189.98 -85.41,-275.75 -7.93,-125.79 -4.61,-46.2 -19.58,-109.04 -8.06,-33.85 4.12,-319.55 15.49,-345.22 29.62,-66.83 223.68,-75.74 350.31,-138.33l-0.47 -59.95 -170 -1.21c-6.3,-22.15 -7.73,-33.69 -24.89,-43.41 -10.3,20.1 -6.03,9.85 5.87,31.63 7.81,14.3 7.98,9.84 12.28,27.65 -25.32,-6.91 -148.9,-33.47 -162.54,-41.67 -8,-4.8 -10.3,-1.42 -19.23,-31.85 -14.84,-50.56 -16.71,-89.08 12.57,-125.95 27.37,3.52 83.62,45.25 109.82,60.86 61.99,36.93 53.4,28.68 62.82,64.41 4.04,15.32 1.59,13.06 10.49,27.31l-2.17 -61.56c-17.23,-11.37 -32.12,-21.77 -47.04,-32.21l786.05 0.24c119.51,0.03 232.58,-21.49 349.05,-21.56 395.97,-0.75 833.94,-35.08 1203.22,78.48 132.75,40.82 268.61,90.42 388.11,151.5 33.37,17.05 55.77,8.19 96.6,11.71 99.91,8.61 107.25,31.43 104.51,92.15 63.57,1.57 35.41,8.18 68.32,25.9 7.6,4.09 143.1,15.89 224.17,43.09 164.27,55.12 322.14,194.66 362.4,361.39z"/>
 </g>
</svg>
