<?xml version="1.0" encoding="UTF-8"?>
<!DOCTYPE svg PUBLIC "-//W3C//DTD SVG 1.1//EN" "http://www.w3.org/Graphics/SVG/1.1/DTD/svg11.dtd">
<svg xmlns="http://www.w3.org/2000/svg" xml:space="preserve" width="145.18mm" height="94.029mm" version="1.1" style="shape-rendering:geometricPrecision; text-rendering:geometricPrecision; image-rendering:optimizeQuality; fill-rule:evenodd; clip-rule:evenodd"
viewBox="0 0 1442.52 934.28"
 xmlns:xlink="http://www.w3.org/1999/xlink">
 <defs>
  <style type="text/css">
   <![CDATA[
    .fil0 {fill:#DC0000}
    .fil1 {fill:white;fill-rule:nonzero}
   ]]>
  </style>
 </defs>
 <g>
  <g>
   <path class="fil0" d="M409.85 246.24c-44.93,1.13 -80.56,20.1 -109.41,55.09l-121.17 143.94 -37 -55.11 -89.44 -3 -52.82 50.52 51.47 20.3 79.56 -2.6 12.51 14.64 -89.46 60.93 94.9 145.19 -64.84 -138.48 128.1 -82.43c355.71,4.84 662.32,4.84 1018.03,0l128.1 82.43 -64.84 138.48 94.9 -145.19 -89.46 -60.93 12.51 -14.64 79.56 2.6 51.47 -20.3 -52.82 -50.52 -89.44 3 -37 55.11 -121.17 -143.94c-28.84,-34.99 -64.47,-53.95 -109.41,-55.09 -265.17,0.76 -357.65,0.76 -622.82,0z"/>
   <polygon class="fil0" points="125.46,560.98 406.11,668.86 313.54,704.71 180.46,684.92 "/>
   <polygon class="fil0" points="1316.58,560.98 1035.92,668.86 1128.5,704.71 1261.57,684.92 "/>
   <ellipse class="fil0" cx="721.26" cy="670.63" rx="257.96" ry="5.81"/>
  </g>
  <path class="fil1" d="M223.89 2.69l44.69 0c15.25,0 26.38,3.55 33.38,10.63 7,7.09 10.5,17.99 10.5,32.71l0 7.54c0,9.69 -1.57,17.59 -4.71,23.69 -3.14,6.1 -7.94,10.5 -14.4,13.19l0 0.54c14.72,5.02 22.07,18.13 22.07,39.3l0 16.15c0,14.54 -3.81,25.62 -11.44,33.25 -7.63,7.63 -18.8,11.44 -33.51,11.44l-46.57 0 0 -188.44zm41.19 76.72c5.92,0 10.36,-1.53 13.33,-4.58 2.96,-3.05 4.44,-8.17 4.44,-15.34l0 -10.5c0,-6.82 -1.21,-11.76 -3.63,-14.81 -2.42,-3.05 -6.24,-4.58 -11.44,-4.58l-14.27 0 0 49.8 11.58 0zm5.38 84.8c5.2,0 9.06,-1.39 11.57,-4.17 2.51,-2.78 3.77,-7.58 3.77,-14.4l0 -16.42c0,-8.61 -1.48,-14.58 -4.44,-17.9 -2.96,-3.32 -7.85,-4.98 -14.67,-4.98l-13.19 0 0 57.88 16.96 0zm75.89 -161.52l80.76 0 0 26.92 -51.15 0 0 49.8 40.65 0 0 26.92 -40.65 0 0 57.88 51.15 0 0 26.92 -80.76 0 0 -188.44zm111.42 0l29.61 0 0 161.52 48.72 0 0 26.92 -78.34 0 0 -188.44zm130.26 0l40.11 0 30.69 188.44 -29.61 0 -5.38 -37.42 0 0.54 -33.65 0 -5.38 36.88 -27.46 0 30.69 -188.44zm32.3 125.98l-13.19 -93.14 -0.54 0 -12.92 93.14 26.65 0zm101.73 -125.98l29.88 0 19.38 146.17 0.54 0 19.38 -146.17 27.19 0 -28.53 188.44 -39.3 0 -28.54 -188.44zm124.34 0l29.61 0 0 188.44 -29.61 0 0 -188.44zm103.88 191.13c-14.36,0 -25.21,-4.08 -32.57,-12.25 -7.36,-8.17 -11.04,-19.88 -11.04,-35.13l0 -10.77 28 0 0 12.92c0,12.2 5.12,18.31 15.34,18.31 5.02,0 8.84,-1.48 11.44,-4.44 2.6,-2.96 3.9,-7.76 3.9,-14.4 0,-7.9 -1.79,-14.85 -5.38,-20.86 -3.59,-6.01 -10.23,-13.24 -19.92,-21.67 -12.2,-10.77 -20.73,-20.5 -25.57,-29.21 -4.84,-8.7 -7.27,-18.53 -7.27,-29.48 0,-14.9 3.77,-26.43 11.31,-34.59 7.54,-8.17 18.49,-12.25 32.84,-12.25 14.18,0 24.9,4.08 32.17,12.25 7.27,8.17 10.9,19.88 10.9,35.13l0 7.81 -28 0 0 -9.69c0,-6.46 -1.26,-11.17 -3.77,-14.13 -2.51,-2.96 -6.19,-4.44 -11.04,-4.44 -9.87,0 -14.81,6.01 -14.81,18.04 0,6.82 1.84,13.19 5.52,19.11 3.68,5.92 10.36,13.1 20.06,21.54 12.38,10.77 20.91,20.55 25.57,29.34 4.67,8.79 7,19.11 7,30.96 0,15.43 -3.81,27.28 -11.44,35.53 -7.63,8.25 -18.71,12.38 -33.25,12.38zm98.5 -164.21l-30.96 0 0 -26.92 91.53 0 0 26.92 -30.96 0 0 161.52 -29.61 0 0 -161.52zm99.04 -26.92l40.11 0 30.69 188.44 -29.61 0 -5.38 -37.42 0 0.54 -33.65 0 -5.38 36.88 -27.46 0 30.69 -188.44zm32.3 125.98l-13.19 -93.14 -0.54 0 -12.92 93.14 26.65 0z"/>
  <path class="fil1" d="M280.94 903.1l19.65 -98.26 19.17 0 19.65 98.26 -16.62 0 -3.88 -22.69 -17.1 0 -4 22.69 -16.86 0zm22.69 -34.09l13.35 0 -6.67 -41.25 -6.67 41.25zm109.55 35.42c-7.28,0 -12.94,-1.33 -16.98,-4 -4.04,-2.67 -6.83,-6.47 -8.37,-11.4 -1.54,-4.93 -2.31,-10.84 -2.31,-17.71l0 -66.48 17.47 0 0 68.54c0,3.07 0.2,5.96 0.61,8.67 0.4,2.71 1.36,4.89 2.85,6.55 1.5,1.66 3.74,2.49 6.73,2.49 3.15,0 5.44,-0.83 6.85,-2.49 1.41,-1.66 2.34,-3.84 2.79,-6.55 0.45,-2.71 0.67,-5.6 0.67,-8.67l0 -68.54 17.35 0 0 66.48c0,6.87 -0.77,12.78 -2.31,17.71 -1.54,4.93 -4.31,8.73 -8.31,11.4 -4,2.67 -9.68,4 -17.04,4zm89.29 -1.33l0 -85.04 -15.65 0 0 -13.22 49.01 0 0 13.22 -15.41 0 0 85.04 -17.95 0zm106.03 1.33c-6.96,0 -12.49,-1.29 -16.62,-3.88 -4.13,-2.59 -7.08,-6.31 -8.86,-11.16 -1.78,-4.85 -2.67,-10.59 -2.67,-17.23l0 -36.76c0,-6.63 0.89,-12.31 2.67,-17.05 1.78,-4.73 4.73,-8.35 8.86,-10.86 4.12,-2.51 9.66,-3.76 16.62,-3.76 7.12,0 12.72,1.25 16.8,3.76 4.08,2.51 7.04,6.13 8.86,10.86 1.82,4.73 2.73,10.41 2.73,17.05l0 36.88c0,6.55 -0.91,12.23 -2.73,17.04 -1.82,4.81 -4.77,8.53 -8.86,11.16 -4.08,2.63 -9.68,3.94 -16.8,3.94zm0 -13.22c2.99,0 5.2,-0.65 6.61,-1.94 1.41,-1.29 2.36,-3.07 2.85,-5.34 0.48,-2.26 0.73,-4.73 0.73,-7.4l0 -45.25c0,-2.75 -0.24,-5.22 -0.73,-7.4 -0.49,-2.18 -1.44,-3.9 -2.85,-5.16 -1.42,-1.25 -3.62,-1.88 -6.61,-1.88 -2.83,0 -4.97,0.63 -6.43,1.88 -1.46,1.25 -2.43,2.97 -2.91,5.16 -0.48,2.18 -0.73,4.65 -0.73,7.4l0 45.25c0,2.67 0.22,5.14 0.67,7.4 0.45,2.26 1.4,4.04 2.85,5.34 1.46,1.29 3.64,1.94 6.55,1.94zm108.82 11.89l0 -98.26 28.87 0c5.9,0 10.7,1.09 14.38,3.27 3.68,2.18 6.39,5.36 8.13,9.52 1.74,4.17 2.61,9.2 2.61,15.1 0,6.39 -1.09,11.55 -3.28,15.47 -2.18,3.92 -5.24,6.77 -9.16,8.55 -3.92,1.78 -8.55,2.67 -13.89,2.67l-9.7 0 0 43.67 -17.95 0zm17.95 -56.29l6.79 0c3.24,0 5.76,-0.47 7.58,-1.4 1.82,-0.93 3.07,-2.43 3.76,-4.49 0.69,-2.06 1.03,-4.83 1.03,-8.31 0,-3.56 -0.26,-6.45 -0.79,-8.67 -0.53,-2.22 -1.66,-3.86 -3.4,-4.91 -1.74,-1.05 -4.47,-1.58 -8.19,-1.58l-6.79 0 0 29.36zm83.71 56.29l0 -98.26 41.25 0 0 12.62 -23.29 0 0 28.27 18.32 0 0 12.49 -18.32 0 0 32.51 23.53 0 0 12.37 -41.49 0zm116.1 1.33c-7.2,0 -12.84,-1.41 -16.92,-4.25 -4.08,-2.83 -6.94,-6.69 -8.55,-11.59 -1.62,-4.89 -2.43,-10.53 -2.43,-16.92l0 -35.06c0,-6.71 0.81,-12.54 2.43,-17.47 1.62,-4.93 4.47,-8.73 8.55,-11.4 4.08,-2.67 9.73,-4 16.92,-4 6.79,0 12.11,1.15 15.95,3.46 3.84,2.3 6.57,5.6 8.19,9.89 1.62,4.29 2.43,9.26 2.43,14.92l0 8.25 -17.23 0 0 -8.49c0,-2.75 -0.14,-5.26 -0.42,-7.52 -0.28,-2.26 -1.05,-4.06 -2.31,-5.4 -1.25,-1.33 -3.42,-2 -6.49,-2 -3.07,0 -5.32,0.71 -6.73,2.12 -1.41,1.41 -2.33,3.32 -2.73,5.7 -0.4,2.39 -0.61,5.08 -0.61,8.07l0 42.7c0,3.56 0.28,6.49 0.85,8.79 0.57,2.31 1.6,4.04 3.09,5.22 1.5,1.17 3.54,1.76 6.13,1.76 2.99,0 5.12,-0.71 6.37,-2.12 1.25,-1.41 2.04,-3.3 2.37,-5.64 0.32,-2.35 0.48,-4.97 0.48,-7.89l0 -8.86 17.23 0 0 7.89c0,5.82 -0.77,10.98 -2.31,15.47 -1.54,4.49 -4.23,8.01 -8.07,10.55 -3.84,2.55 -9.24,3.82 -16.2,3.82zm0.97 29.84c-1.46,0 -2.93,-0.12 -4.43,-0.36 -1.5,-0.24 -2.93,-0.57 -4.31,-0.97l0 -7.64c0.97,0.32 2.02,0.57 3.15,0.73 1.13,0.16 2.26,0.24 3.4,0.24 2.1,0 3.88,-0.34 5.34,-1.03 1.46,-0.69 2.18,-1.84 2.18,-3.46 0,-1.54 -0.51,-2.73 -1.52,-3.58 -1.01,-0.85 -2.33,-1.52 -3.94,-2 -1.62,-0.48 -3.4,-0.81 -5.34,-0.97l0 -12.13 6.91 0 0 7.4c4.53,0 8.17,0.99 10.92,2.97 2.75,1.98 4.12,4.83 4.12,8.55 0,2.91 -0.75,5.26 -2.24,7.04 -1.5,1.78 -3.5,3.09 -6.01,3.94 -2.51,0.85 -5.26,1.27 -8.25,1.27zm70.85 -31.18l19.65 -98.26 19.17 0 19.65 98.26 -16.62 0 -3.88 -22.69 -17.1 0 -4 22.69 -16.86 0zm22.69 -34.09l13.35 0 -6.67 -41.25 -6.67 41.25zm107.37 35.42c-5.9,0 -10.84,-1.15 -14.8,-3.46 -3.96,-2.3 -6.96,-5.68 -8.98,-10.13 -2.02,-4.45 -3.15,-9.91 -3.4,-16.38l15.41 -3.03c0.16,3.8 0.63,7.16 1.4,10.07 0.77,2.91 1.94,5.16 3.52,6.73 1.58,1.58 3.66,2.37 6.25,2.37 2.91,0 4.97,-0.87 6.19,-2.61 1.21,-1.74 1.82,-3.94 1.82,-6.61 0,-4.29 -0.97,-7.8 -2.91,-10.55 -1.94,-2.75 -4.53,-5.5 -7.76,-8.25l-12.37 -10.92c-3.48,-2.99 -6.25,-6.33 -8.31,-10.01 -2.06,-3.68 -3.09,-8.23 -3.09,-13.65 0,-7.76 2.26,-13.75 6.79,-17.95 4.53,-4.21 10.72,-6.31 18.56,-6.31 4.61,0 8.45,0.71 11.52,2.12 3.07,1.41 5.52,3.38 7.34,5.88 1.82,2.51 3.17,5.36 4.06,8.55 0.89,3.19 1.46,6.57 1.7,10.13l-15.29 2.67c-0.16,-3.07 -0.51,-5.82 -1.03,-8.25 -0.53,-2.43 -1.46,-4.33 -2.79,-5.7 -1.33,-1.38 -3.3,-2.06 -5.88,-2.06 -2.67,0 -4.71,0.87 -6.13,2.61 -1.42,1.74 -2.12,3.9 -2.12,6.49 0,3.32 0.69,6.05 2.06,8.19 1.37,2.14 3.36,4.35 5.94,6.61l12.25 10.8c4.04,3.4 7.5,7.38 10.37,11.95 2.87,4.57 4.31,10.09 4.31,16.56 0,4.69 -1.03,8.86 -3.09,12.5 -2.06,3.64 -4.93,6.49 -8.61,8.55 -3.68,2.06 -7.99,3.09 -12.92,3.09z"/>
 </g>
</svg>
