<?xml version="1.0" encoding="UTF-8"?>
<!DOCTYPE svg PUBLIC "-//W3C//DTD SVG 1.1//EN" "http://www.w3.org/Graphics/SVG/1.1/DTD/svg11.dtd">
<svg xmlns="http://www.w3.org/2000/svg" xml:space="preserve" width="397.466mm" height="162.051mm" version="1.1" style="shape-rendering:geometricPrecision; text-rendering:geometricPrecision; image-rendering:optimizeQuality; fill-rule:evenodd; clip-rule:evenodd"
viewBox="0 0 8770.83 3575.96"
 xmlns:xlink="http://www.w3.org/1999/xlink">
 <defs>
  <style type="text/css">
   <![CDATA[
    .fil0 {fill:#000000; stroke:#DC0000; stroke-width:1.5; vector-effect:non-scaling-stroke}
   ]]>
  </style>
 </defs>
 <g id="Camada_x0020_1">
  <path class="fil0" d="M5071.78 0l-394.34 0c-166.2,52.61 -1061.2,-69.06 -2235.49,518.58 -94.98,47.53 -554.59,264.37 -603.01,306.87 96.95,-22.65 294.28,-125.17 398.09,-169.09 99.16,-41.96 306.63,-145.94 402.13,-165.35 -63.59,47 -271.27,141.5 -359.53,192.01l-305.67 176.93c-10.86,6.4 -9.42,4.59 -19.62,12.07 -1.45,1.07 -3.48,2.67 -4.78,3.69l-13.73 13.02c132.76,18.68 275.23,49.41 414.05,70.19 134.15,20.08 314.83,13.8 457.38,18.38 305.19,9.81 611.75,22.78 915.3,39.99 464.44,26.32 927.39,6.05 1393.46,-8.19 80.09,-2.45 160.22,-4.81 240.31,-7.12 251.39,-7.25 192.15,35.56 298.45,-96.42 24.84,-30.84 44.28,-57.25 68,-87.63 113.66,-145.53 224.08,-298.89 342.99,-443.24 24.1,-29.26 55.42,-59.98 62.09,-97.75 -236.39,-92.64 -1296.64,-104.66 -1643.33,-103.18 -183,0.78 -398.83,11.4 -578.04,-0.88l25.4 -9.09c135.21,-32.16 593.35,-48.34 716.12,-50.39 260.47,-4.34 519.29,7.66 778.35,18.46 253.25,10.55 521.24,6.88 771,23.47 624.57,41.49 1232.14,351.11 1805.13,577.14 130.34,51.42 481.37,170.61 544.08,250.08 39.86,50.52 99.85,198.57 128.55,268.33 39.26,95.4 66.97,224.05 57.58,337.66 -21.03,-64.35 -26.16,-152.07 -46.3,-224.25 -83.39,-298.84 -274.13,-197.16 -367.48,95.82 -44.51,139.69 -74.6,288.2 -93.35,443 -10.13,83.62 -17.05,165.28 -22.89,248.53 -22.83,325.48 68.46,317.3 -375.97,435.47 -145.56,38.71 -283.85,71.06 -428.95,107.87 -210.16,53.32 -679.99,188.02 -857.87,219.51 28.44,-199.93 62.08,-336.67 47.7,-555.86 -28.04,-427.46 -344.18,-1061.27 -867.99,-848.37 -456.91,232.86 -522.48,789.72 -439.01,1625.48 0.62,39.91 28.04,133.6 25.82,153 -37.35,81.55 -512.69,64.67 -611.7,66.66 -485.21,9.73 -970.72,-4.45 -1455.34,-23.3 -134.59,-5.23 -592.9,-15.78 -693.66,-38.28 -53.94,-12.05 -85.09,-33.28 -133.95,-53.31 -86.73,-35.57 -391.97,-46.03 -496.4,-54.17 -338.47,-26.37 -676.55,-55.18 -1011.72,-103.37 -102.97,-14.8 -216.25,-43.89 -319.1,-46.26 -128.19,-2.95 -210.09,36.97 -316.12,-19.35 -41.88,-22.25 -77.76,-43.79 -121.05,-65.68 -43.05,-21.78 -88.61,-32.66 -102.89,-82.32 114.18,-50.28 96.54,-9.76 146.78,-117.34 26.5,-56.76 73.8,-122.22 92.2,-176.38l-22.02 20.84c-5.96,7.17 -10.43,15.1 -15.88,23.05 -145.74,212.62 -46.68,148.37 -188.09,201.06 -165.28,61.59 72.35,180.81 133.43,219.78 75.26,48.03 115.88,79.92 230.01,74.36 215.48,-10.5 350.71,37.26 550.6,70.83 180.98,30.39 355.84,56.53 540.08,75.58 104.04,10.76 786.75,62.67 848.9,85.08 90.49,32.63 114.67,63.57 232.04,71.59 597.22,40.82 1208.54,37.94 1806.63,13.33 54.29,-2.23 182.52,46.95 250.85,62.41 84.94,19.22 170.51,33.16 257.83,44.61 245.52,32.2 933.94,77.87 1139.83,-29.01 169.18,-87.82 287.57,-239.53 375.95,-402.25 31.79,-58.54 17.44,-44.64 91.75,-64.02 133.18,-34.73 1159.79,-316.28 1215.39,-319.63 14.57,16.64 17.65,23.98 27.94,35.94 11.72,13.63 19.9,20.43 30.76,31.36 26.18,26.31 38.35,34.48 75.1,49.63 130.35,53.74 537.42,19.45 666.38,-8.05 180.58,-38.51 234.48,-515.94 239.48,-730.22 4.62,-197.89 -29.97,-351 -28.57,-467.34 2.21,-184.12 14.67,-249.69 -47.01,-418.94 -39.06,-107.18 -77.14,-249.44 -167.01,-315.62 -119.38,-87.92 -834.04,-382.57 -999.26,-456.36 -497.77,-222.32 -956.88,-401.76 -1526.01,-409.28 -115.66,-1.53 -877.37,-20.01 -930.76,-34.32zm-3620.04 2262.1c72.48,-7.12 194.23,-102.21 218.95,-146.51 -38.51,-22.63 -121.19,-17.28 -170.63,-16.02 -25.29,50.43 -62.61,77.28 -48.32,162.54zm2632.45 15.14l391.11 -309.14c131.78,-105.74 267.98,-204.71 406.71,-301.68 241.67,-168.91 501.34,-338.24 776.56,-461.06 38.67,-17.25 93.23,-31.04 126.03,-53.38 -135.41,11.13 -396.33,143.01 -509.75,198.77 -244.77,120.32 -519.47,329.02 -735.22,502.75 -35.77,28.8 -62.13,55.68 -96.53,82.48l-90.93 80.43c-36.85,37.71 -58.34,54.36 -93.31,85.69l-174.68 175.16zm3371.06 199.9c105,11.21 357.29,10.96 466.25,1.05 186.73,-16.99 82.17,-157.9 -1.19,-262.31 -35.02,-43.87 -82.38,-59.92 -146.44,-87.06 -120.37,-51.01 -130.67,2.79 -237.01,184.07 -22.85,38.94 -79.62,118.23 -81.61,164.25zm267.72 -1339.26c-75.72,-46.96 -9.08,-17.72 -125.58,-70.39 -35.97,-16.26 -103.68,-49.13 -139.89,-56 62.52,54.2 175.2,89.23 223.75,148.43 -52.26,46.42 -885.78,364.33 -977.9,368.62 -91.9,4.28 -176.04,-68.14 -229.6,-107.96 -78.49,-58.36 -543.74,-369.21 -612.06,-400 96.98,84.81 286.21,220.43 397.1,303.47 68.75,51.48 135.46,96.43 201.04,149.17 53.18,42.78 138.86,114.34 235.52,112.79 118.08,-1.9 724.22,-243.68 893.94,-326.16 39.2,-19.05 85.23,-46.93 119.59,-59.76 56.86,141.68 -25.18,483.66 -69.22,624.14 -44.13,140.76 -186.2,479.86 -197.83,527.05 62.78,-58.19 218.72,-407.58 254.64,-517.2 60.86,-185.72 122.15,-467.76 49.1,-658.6 7.73,-9.44 97.55,-85.05 164.82,-163.03 36.27,-42.04 110.57,-138.82 130.8,-192.28 -75.15,92.52 -211.09,262.77 -318.23,317.7zm-6881.5 629l-20.83 -12.99c27.91,-78.01 130.68,-221.35 172.22,-279.03 132.84,-184.44 268.08,-312.16 444.16,-458.71 155.93,-129.78 206.31,-96.11 301.24,-151.81 -102.03,-3.43 -263.39,46.12 -349.5,80.23 -267.53,105.98 -273.17,53.27 -591.83,264.37 -241.84,160.22 -467.37,423.42 -611.26,673.16 -25.49,44.23 -65.74,91.69 -48.67,153.16 26.23,94.47 156.03,369.13 190,464.66 25.39,-21.89 135.97,-161.04 131.95,-210.48 -3.07,-37.64 -55.31,-60.6 -84.52,-86.65 -208.23,-185.65 -178.46,-176.68 -90.58,-300.32 50.5,-71.06 97.86,-130.45 150.41,-195.2 -11.37,69.91 -0.41,63.74 33.9,106.19 107.12,132.52 129.51,25.5 286.76,-61.36 -44.23,125.89 -167.92,403.37 -149.95,555.82 -4.41,-48.57 104.64,-333.04 140.76,-410.4 17.48,-37.44 52.67,-101.42 62.01,-136.26l33.72 5.62 22.81 16.11c123.99,66.78 338.27,128.55 472.94,157.78 141.65,30.75 165.63,-28.15 282.52,-41.99 51.5,-6.1 276.05,5.75 323.74,18.87 111.21,30.58 17.22,97.05 252.43,83.93l945.37 -66.47c-29.95,11.2 -144.52,84.52 -180.07,107.01 -64.44,40.78 -125.53,77.52 -185.52,118.14 -44.65,30.24 -308.54,212.98 -347.23,262.45 54.21,-25.85 288.7,-193.83 405.39,-258.8 76.4,-42.54 373.83,-222.02 438.4,-236.55 12.75,32.74 100.14,135.01 124.77,156.55 53.76,47.02 176.95,13.01 247.72,3.39 163.42,-22.23 328.41,-48.7 490.55,-70.42 103.83,-13.9 250.9,-131.23 361.55,-198.49 66.14,-40.21 300.45,-181.61 330.86,-239.43 -110.21,-0.57 -276.42,45.23 -385.35,68.62l-745.09 165.19c-115.97,25.36 -261.58,69.41 -373.86,84.81 156.55,-91.42 349.97,-171.79 524.03,-253.6 420.29,-197.55 958.78,-387.21 1405.85,-540.46 59.82,-20.5 249.12,-89.28 294.69,-95.77 -162.52,7.83 -982.75,285.58 -1132.24,340.3 -363.04,132.89 -822.89,334.91 -1147.8,518.03 -37.29,21.01 -84.15,54 -129.72,55.32 -123.67,3.56 -249.78,1.53 -374.12,4.27 -119.45,2.64 -238.66,6.17 -358.06,10.54 -70.79,2.59 -307.17,31.75 -348.38,-7.5 -40.19,-38.27 -36.68,-53.22 -108.72,-69.75 -61.47,-14.1 -296.98,-22.1 -356.49,-9.57 -166.31,35.02 -90.83,94.95 -463.27,4.28 -85.87,-20.9 -219.3,-77.25 -287.7,-86.8zm-73.34 -50.97l31.16 -45.6c63.33,-111.66 134.71,-224.28 217.08,-319.9 114.6,-133.03 170.03,-174.46 296.03,-279.8l21.34 -20.29c-205.19,41.61 -411.97,216.45 -556.26,318.22 -18.77,13.24 -33.11,15.61 -36.52,48.24 -7.56,72.4 15.93,227.21 27.18,299.13zm2502.42 843.07c0.83,45.2 22.14,56.48 58.22,76.03 30.93,16.76 57.57,31.36 90.85,49.04 61.65,32.75 119.13,65.08 181.23,98.95 120.25,65.59 235.63,128.14 355.73,197.19 122.16,70.24 218.29,147.25 395.26,153.42 74.86,2.61 203.41,7.09 274.64,-3.55 46.38,-6.92 156.06,-74.9 177.97,-101.82 -10.59,-57.02 -210.74,-224.73 -276.45,-292.44l-304.62 -263.8c-82.05,-65.27 -52.26,-51.57 -211.36,-32.64 -141.97,16.89 -677.25,73 -741.47,119.6zm2562.66 -1585.89c28.76,26.39 103.98,66.25 142.67,88.99 47.84,28.12 100.73,59.85 154.5,86.7 188.94,94.33 193.5,44.44 396.61,23.19 -2.78,60.56 2.22,67.21 -24.21,105.36 33.57,-19.11 28.72,-20.24 35.96,-63.85 4.84,-29.16 10.02,-57.87 15.1,-86.31 3.61,-20.21 14.84,-67.63 14.47,-85.43 -0.58,-27.69 -54.39,-73.38 108.86,-172.38 56.26,-34.12 109.95,-33.72 181.72,-29.94 59.66,3.14 349.37,18.39 381.61,32.38 29.37,12.75 80.09,75.65 66.96,129.02 -7.97,32.42 -67.26,97.39 -81.82,127.88 -169.72,8.41 -332.04,25.36 -503.57,18.46l15.15 231.92c15.69,-53.1 8.73,-142.32 11.36,-203.04 174.78,13.18 326.61,4.98 500.89,5.38 23.27,-24.12 74.14,-94.24 98.09,-132.23 46.76,-74.18 5.98,-124.71 -24.9,-185.09 42.21,-61.32 40.01,-36.64 51.77,-131.8 8.87,-71.78 17.29,-100 -23.22,-142.63 -58.24,-61.29 -118.87,-136.76 -199.85,-165.92 -169.8,-61.15 -378.95,-134.91 -575.51,-146.97 -258.08,-15.83 -339.47,135.65 -447.53,269.31 -55.52,68.67 -99.57,128.53 -155.13,203.1 -31.47,42.24 -123.97,175.93 -139.99,223.9zm-5651.08 1852.76l117.71 144.42c32.69,31.94 48.92,28.67 103.75,23.47 42.32,-4.02 80.85,-6.24 124.4,-1.89 147.22,14.7 310.58,47.55 461.03,67.19 320.09,41.77 643.82,71.82 968.59,96.7 119.29,9.14 384.98,13.03 476.27,54.7 164.13,74.91 269.23,62.04 463.18,71.37 157.01,7.55 952.13,55.69 1035.25,3.37 -133.76,-56.1 -290.53,-144.77 -426.41,-212.43 -144.67,-72.03 -291.65,-140.86 -431.85,-214.33 -137.19,-71.89 -285.17,-143.19 -429.85,-208.52 -185.32,-83.68 -293.53,-117.88 -526.21,-121.42 -407.33,-6.2 -782.46,-45.9 -1175.47,-107.44 -91.69,-14.36 -182.98,-29.21 -273.8,-45.2 -89.1,-15.69 -117.12,-34.75 -218.9,74.1 -66.36,70.97 -232.54,289.69 -267.68,375.92zm8320.9 -1402.4c-212.61,112.35 -210.29,783.35 -130.64,1072.55 130.26,472.96 387.21,172.88 375.01,-464.29 -2.51,-130.97 -16.18,-261.08 -49.92,-382.97 -23.72,-85.67 -89.99,-280.49 -194.45,-225.29zm-62.13 506.61c29.68,-10.43 64.46,-30.74 92.01,-45.88 46.88,-25.76 58.55,-18.98 75.66,-72.21 31.65,-98.49 -22.44,-149.17 -64.91,-205.07 -14.04,79.12 16.6,115.35 -24.63,185.62 -26.04,44.38 -57.66,93.13 -78.12,137.54zm1.49 140.67c55.6,52.03 150.41,73.52 192.1,138.06 30.84,-50.75 21.91,-217.2 13.11,-284.48 -45.01,51.16 -24.05,46.51 -93.35,82.76 -25.76,13.48 -94.42,48.24 -111.86,63.66zm77.46 467.87c81.21,-30.83 83.29,-134.35 71.51,-208.04 -6.41,-40.1 -0.08,-24.96 -24.74,-44.78l-124.8 -95.63c21.97,47.02 52.48,89.51 74.99,137.64 23.57,50.4 4.32,149.35 3.05,210.81zm-127.39 -110.37c18.78,-15.96 31.57,-50.85 43.33,-72.57 24.51,-45.27 27.91,-42.24 0.93,-87.7 -31.25,-52.65 -57.61,-106.62 -87.99,-156.58 0.07,67.67 20.82,261.16 43.73,316.85zm-2776.22 -649.34c65.77,-41.34 187.99,-61.77 281.44,-47.08 2.16,54.03 -48,274.76 -61.66,344.07 -16.42,83.34 -89.16,207.13 -119.64,291.33 -41.42,-37.41 -31.15,-95.12 -149.73,-226.36 -18.88,-20.9 -40.49,-49.96 -62.31,-61.33 -14.66,30.49 -25.13,86.16 -33.42,121.35 -39.89,169.26 -4.29,88.31 82.01,202.81 24.07,31.94 46.9,65.02 62.98,102.98 -17.67,45.19 -69.84,113.62 -96.82,147.16 -40.03,49.78 -166.52,129.73 -204.81,153.01 -99.52,490.66 703.06,1010.22 1009.86,83.74 125.62,-379.34 58.28,-969.54 -315.62,-1168.1 -100.82,-53.54 -368.57,-82.33 -392.27,56.41zm87.98 646.37c-81.95,36.28 -53.37,224.55 44.91,187.29 78.36,-29.72 52.73,-230.52 -44.91,-187.29zm-305.21 627.87c19.13,46.28 87.61,145.31 147.04,174.87 88.56,44.06 183.74,57.76 295.67,48.76 0.2,-190.12 -54.04,-480.62 -139.09,-618.46 -55.9,76.51 -75.21,128.62 -152.04,221.59 -60.42,73.12 -120.19,135.19 -151.58,173.24zm626.91 45.54c78.26,-49.52 200.91,-288.12 179.63,-444.11 -55.55,-17.26 -234.11,-20.28 -302.56,-32.96 -31.94,-5.92 -53.8,-23.04 -86.19,-28.98 -9.68,40.23 4.95,43.62 52.96,109.27 84.27,115.22 110.48,124.89 127.36,239.06 6.92,46.81 8.39,120.77 28.81,157.73zm-214.39 -673.48l443.08 -12.89c-6.9,-127.55 -109.14,-413.72 -197.56,-470.72 -36.43,50.66 -21.15,163.97 -94.25,268.49l-151.27 215.11z"/>
 </g>
</svg>
